<?xml version="1.0" encoding="iso-8859-1"?>
<!-- Generator: Adobe Illustrator 15.0.2, SVG Export Plug-In . SVG Version: 6.00 Build 0)  -->
<!DOCTYPE svg PUBLIC "-//W3C//DTD SVG 1.1//EN" "http://www.w3.org/Graphics/SVG/1.1/DTD/svg11.dtd">
<svg version="1.1" id="&#x30EC;&#x30A4;&#x30E4;&#x30FC;_1"
	 xmlns="http://www.w3.org/2000/svg" xmlns:xlink="http://www.w3.org/1999/xlink" x="0px" y="0px" width="531px" height="99px"
	 viewBox="0 0 531 99" style="enable-background:new 0 0 531 99;" xml:space="preserve">
<path style="fill-rule:evenodd;clip-rule:evenodd;" d="M171.92,54.79c-0.92,0-1.57-0.6-2.26-1.199c-0.73-0.6-3.4-2.9-5.56-4.64
	c-0.88-0.7-1.48-1.25-1.48-2.399c0-1.841,1.57-2.301,2.3-2.301c0.92,0,1.39,0.32,4.05,2.391c1.61,1.289,3.22,2.629,4.65,4.148
	c0.46,0.5,0.69,1.191,0.69,1.521C174.31,54.382,172.47,54.79,171.92,54.79 M172.51,42.921c-0.41,0-0.78-0.05-1.51-0.65
	c-2.35-1.93-2.62-2.109-5.25-4.18c-1.79-1.38-2.07-1.609-2.07-2.67c0-1.109,0.88-2.17,2.21-2.17c0.87,0,2.44,1.2,3.59,2.12
	c1.47,1.149,3.73,2.95,4.51,3.87c0.46,0.59,0.64,0.92,0.64,1.561C174.63,42.231,173.53,42.921,172.51,42.921 M181.03,61.651v8.6
	c0,1.93,0,2.391-0.65,3.039c-0.5,0.5-1.06,0.641-1.65,0.641c-0.88,0-1.52-0.369-1.98-1.01c-0.32-0.51-0.32-1.15-0.32-2.67v-7.68
	L165.2,64.78c-1.2,0.221-1.52,0.271-1.93,0.271c-1.2,0-2.12-1.012-2.12-2.211c0-1.84,1.43-2.109,3.18-2.48l12.1-2.439v-22.41
	c0-1.89,0-2.35,0.64-3.039c0.46-0.461,1.06-0.641,1.66-0.641c0.73,0,1.47,0.27,1.97,1.061c0.33,0.459,0.33,1.1,0.33,2.619v21.49
	c2.02-0.42,2.07-0.42,2.57-0.42c1.89,0,2.07,1.939,2.07,2.35c0,1.801-1.33,2.07-3.22,2.439L181.03,61.651z M155.03,49.081
	c1.8,2.721,4.28,5.66,5.25,6.68c0.64,0.73,1.24,1.381,1.24,2.43c0,1.621-1.33,2.311-2.3,2.311c-1.33,0-1.93-0.83-4.19-3.82v13.99
	c0,1.74,0,2.109-0.18,2.529c-0.41,0.82-1.33,1.102-1.93,1.102c-2.07,0-2.07-1.561-2.07-3.631V56.722
	c-1.11,1.84-2.03,3.359-4.47,5.889c-0.82,0.83-1.28,1.201-2.2,1.201c-1.52,0-2.21-1.201-2.21-2.211c0-0.92,0.37-1.34,1.29-2.391
	c1.61-1.75,4.28-5.25,6.99-10.77h-3.59c-1.52,0-2.16,0-2.67-0.319c-1.01-0.69-1.01-1.71-1.01-1.979c0-0.971,0.37-1.431,0.64-1.701
	c0.65-0.65,1.11-0.65,3.04-0.65h4.19v-5.059l-3.36,0.689c-1.24,0.28-1.38,0.32-1.84,0.32c-2.07,0-2.35-1.93-2.35-2.391
	c0-1.89,1.43-2.209,3.22-2.58l9.53-2.069c1.28-0.271,1.42-0.319,1.88-0.319c1.52,0,2.3,1.059,2.3,2.389
	c0,1.98-1.38,2.261-3.22,2.631l-1.98,0.41v5.979h2.58c1.52,0,2.16,0,2.67,0.32c1.01,0.691,1.01,1.711,1.01,2.031
	c0,0.92-0.37,1.43-0.64,1.66c-0.65,0.639-1.11,0.639-3.04,0.639h-2.58V49.081z"/>
<path style="fill-rule:evenodd;clip-rule:evenodd;" d="M208.039,38.681c-0.319-0.73-0.92-1.93-1.369-2.891
	c-0.74-1.52-0.83-1.709-0.83-2.029c0-0.869,0.83-2.119,2.07-2.119c1.47,0,2.07,1.25,2.939,3.129c0.83,1.711,1.11,2.26,1.11,3.09
	c0,0.36-0.14,0.69-0.229,0.82h5.699l1.7-2.8c2.21-3.82,2.3-4.011,3.45-4.011c1.24,0,2.35,1.061,2.35,2.121
	c0,0.74-0.55,1.75-0.88,2.299l-1.47,2.391h4.65c1.979,0,3.079,1.38,3.079,2.811v5.569c0,1.521,0,2.16-0.319,2.62
	c-0.551,0.83-1.24,1.061-1.84,1.061c-0.92,0-1.561-0.6-1.841-1.01c-0.319-0.511-0.319-1.15-0.319-2.671v-2.489
	c0-1.281-0.19-1.561-1.34-1.561H196.13c-0.83,0-1.24,0.05-1.24,1.471v2.579c0,1.89,0,2.39-0.65,3.04
	c-0.41,0.359-0.92,0.641-1.61,0.641c-0.96,0-1.56-0.51-1.93-1.01c-0.32-0.511-0.32-1.15-0.32-2.671V42.04
	c0-0.689,0.6-3.359,3.73-3.359h4.18c-0.46-0.779-0.55-0.92-1.24-2.16c-1.1-1.84-1.24-2.07-1.24-2.57c0-1.109,0.83-2.17,1.84-2.17
	c1.52,0,2.39,1.34,2.94,2.211c0.55,0.879,1.8,3.039,1.8,3.959c0,0.32-0.05,0.551-0.14,0.73H208.039z M193.32,61.37
	c-1.88,0-2.39,0-3.03-0.639c-0.42-0.422-0.65-0.971-0.65-1.57c0-1.061,0.69-1.701,1.02-1.93c0.5-0.32,1.15-0.32,2.66-0.32h14.45
	c-1.699-2.17-1.93-2.441-1.93-3.131c0-1.109,0.87-2.07,1.97-2.07c1.66,0,3.64,2.67,4.24,3.541c2.44-1.66,5.06-4,5.06-4.6
	c0-0.461-0.459-0.461-0.92-0.461H200.96c-1.52,0-2.16,0-2.62-0.32c-0.88-0.56-1.06-1.289-1.06-1.84c0-0.93,0.55-1.52,1.01-1.85
	c0.51-0.32,1.15-0.32,2.67-0.32h18.909c2.021,0,3.17,1.11,3.17,2.95c0,2.44-2.439,5.569-6.02,8.101h10.67
	c1.891,0,2.391,0,3.03,0.639c0.42,0.42,0.649,0.971,0.649,1.611c0,1.01-0.689,1.66-1.01,1.889c-0.51,0.32-1.149,0.32-2.67,0.32
	h-12.56c0.64,1.93,0.97,3.5,0.97,4.92c0,5.941-4.42,8.061-8.75,8.061c-3.029,0-5.98-0.689-7.03-1.381
	c-1.02-0.689-1.2-1.379-1.2-1.979c0-0.42,0.14-2.35,2.39-2.35c0.51,0,1.52,0.318,1.84,0.418c2.12,0.592,3.36,0.682,4.24,0.682
	c4.09,0,4.09-3.58,4.09-3.861c0-0.6-0.141-1.979-1.24-4.51H193.32z"/>
<path style="fill-rule:evenodd;clip-rule:evenodd;" d="M273.62,37.161c1.51,0,2.11,0,2.62,0.33c0.87,0.6,1.01,1.33,1.01,1.84
	c0,0.92-0.601,1.52-1.01,1.79c-0.461,0.33-1.11,0.33-2.62,0.33h-7.64v5.38h6.119c3.03,0,3.131,2.76,3.131,4
	c0,2.029-0.65,5.391-2.261,8.561c-1.01,2.029-2.44,4.1-4.55,6.35c1.511,1.01,2.57,1.699,7.359,3.539
	c1.24,0.51,1.881,0.971,1.881,2.211c0,1.34-0.78,2.49-2.11,2.49c-0.55,0-4.601-0.691-10.771-5.061
	c-2.709,1.93-5.01,3.08-8.189,4.051c-1.65,0.5-3.49,0.869-4.141,0.869c-1.469,0-2.43-1.1-2.43-2.711c0-1.658,1.42-1.979,2.66-2.26
	c4.65-1.01,6.12-1.66,8.38-3.129c-5.11-5.381-6.44-9.85-6.44-10.631c0-0.779,0.69-1.93,2.25-1.93c1.291,0,1.66,0.689,2.58,2.529
	c1.051,2.021,2.801,4.791,5.291,7.09c4.27-4.189,5.52-9.209,5.52-10.449c0-0.92-0.648-0.92-1.109-0.92H254.89
	c-1.93,0-2.34,0-3.03-0.64c-0.229-0.28-0.649-0.74-0.649-1.66c0-0.37,0.05-1.29,1.06-1.979c0.461-0.32,1.1-0.32,2.62-0.32h6.761
	v-5.38h-7.261c-1.521,0-2.17,0-2.67-0.33c-0.88-0.601-1.01-1.33-1.01-1.841c0-0.92,0.59-1.52,1.01-1.789
	c0.5-0.33,1.149-0.33,2.67-0.33h7.261v-1.79c0-1.521,0-2.12,0.33-2.62c0.549-0.779,1.239-1.01,1.84-1.01c0.92,0,1.51,0.55,1.84,1.01
	c0.32,0.46,0.32,1.1,0.32,2.62v1.79H273.62z M241.55,35.421c0-1.939,0-2.4,0.649-3.04c0.41-0.409,0.961-0.64,1.561-0.64
	c1.1,0,1.7,0.689,1.93,1.01c0.32,0.5,0.32,1.15,0.32,2.67v5.29h1.57c1.93,0,2.39,0,3.029,0.64c0.23,0.28,0.65,0.74,0.65,1.66
	c0,0.69-0.23,1.43-1.02,1.98c-0.5,0.32-1.141,0.32-2.66,0.32h-1.57v6.67c0.6-0.181,1.57-0.551,2.17-0.78
	c0.32-0.14,0.689-0.229,1.1-0.229c0.461,0,2.07,0.279,2.07,2.158c0,0.74-0.18,1.201-0.6,1.57c-0.96,0.781-3.27,1.561-4.74,2.07V69.7
	c0,2.85-0.41,4.32-5.2,4.32c-1.79,0-4.55,0-4.55-2.48c0-1.75,1.43-2.209,2.16-2.209c0.279,0,1.52,0.18,1.8,0.18
	c0.5,0,1.33-0.039,1.33-1.471V58.011c-1.06,0.279-2.99,0.74-4.19,0.74c-0.869,0-2.3-0.23-2.3-2.07c0-1.98,1.431-2.301,1.94-2.4
	c2.43-0.5,2.71-0.59,4.55-1.049v-7.92h-2.58c-1.93,0-2.39,0-3.03-0.641c-0.279-0.23-0.649-0.74-0.649-1.66
	c0-0.689,0.229-1.43,1.02-1.98c0.5-0.319,1.15-0.319,2.66-0.319h2.58V35.421z"/>
<path style="fill-rule:evenodd;clip-rule:evenodd;" d="M292.54,65.7c0-0.969,0.729-5.109,0.83-5.99
	c0.27-2.109,0.319-2.898,0.46-10.068c0.04-1.98,1.189-2.352,1.93-2.352c0.601,0,1.01,0.182,1.33,0.411
	c0.689,0.55,0.971,0.739,0.971,4.37c0,1.389-0.091,8.379-1.291,13.529c-0.14,0.74-0.459,1.939-1.979,2.17
	C294.1,67.901,292.54,67.63,292.54,65.7 M292.12,33.901c0,1.699-2.431,4.779-3.95,6.529c-2.67,3.221-3.359,3.221-4.05,3.221
	c-1.33,0-2.439-0.961-2.439-2.391c0-0.92,0.369-1.289,1.75-2.619c2.439-2.49,3.63-4.24,4.55-5.621c0.369-0.59,0.789-1.1,1.609-1.239
	C290.7,31.601,292.12,32.381,292.12,33.901 M314.529,38.091c-2.029,0-2.669,0-3.359-1.02c-0.51,1.199-1.47,1.199-1.66,1.199
	c-0.27,0-1.149-0.09-1.74-0.92c-0.14-0.189-1.979-3.819-1.979-4.42c0-1.01,0.779-1.789,1.84-1.789c1.33,0,1.88,0.959,2.301,1.75
	c0.689,1.239,0.829,1.56,1.06,2.16c0.64-1.381,1.42-1.381,3.539-1.381h4.74c1.51,0,2.161,0,2.62,0.32
	c0.46,0.32,1.061,0.97,1.061,1.89c0,0.55-0.23,1.15-0.65,1.56c-0.64,0.65-1.149,0.65-3.03,0.65H314.529z M310.8,52.44
	c0.55,3.59,0.55,3.59,0.97,9.16c0.041,0.141,0.141,1.52,0.141,2.02c0,1.66-1.11,2.441-2.21,2.441c-2.03,0-2.07-1.701-2.12-4.23
	c-0.051-2.67-0.551-6.721-0.92-9.43c-0.05-0.461-0.41-2.35-0.41-2.721c0-0.5,0.181-2.16,2.11-2.16
	C310.02,47.521,310.25,49.04,310.8,52.44 M315.86,49.312h-1.88c-1.431,0-2.12,0-2.631-0.36c-0.32-0.229-1.05-0.88-1.05-1.94
	c0-0.55,0.229-1.1,0.69-1.56c0.69-0.69,1.19-0.69,2.99-0.69h6.119c1.42,0,2.07,0,2.62,0.37c0.271,0.229,1.06,0.87,1.06,1.88
	c0,0.51-0.189,1.291-1.109,1.94c-0.5,0.36-1.101,0.36-2.391,0.36v19.609c0,2.109,0,5.15-4.739,5.15c-1.84,0-5.15-0.32-6.761-1.291
	c-0.279-0.139-0.829-0.6-0.829-1.559c0-1.24,0.92-2.07,2.35-2.07c0.59,0,3.631,0.549,4.32,0.549c0.92,0,1.24-0.369,1.24-1.289
	V49.312z M286.189,55.851c-1.34,1.33-2.209,2.02-3.18,2.02c-1.42,0-2.199-1.379-2.199-2.209c0-0.92,0.459-1.471,0.829-1.84
	c2.07-2.07,3.86-3.82,6.89-8.92c1.201-1.98,1.621-2.67,2.721-2.67c1.75,0,2.12,1.649,2.12,2.109c0,0.92-0.74,2.4-2.67,5.66v20.43
	c0,1.85,0,3.73-2.21,3.73c-0.551,0-1.2-0.141-1.7-0.641c-0.601-0.549-0.601-1.15-0.601-3.09V55.851z M307.58,39.562
	c1.52,0,2.16,0,2.62,0.319c1.02,0.64,1.06,1.47,1.06,1.8c0,0.961-0.64,1.51-1.01,1.791c-0.51,0.318-1.15,0.318-2.67,0.318h-3.08
	v25.682c0,1.52,0,2.158-0.319,2.619c-0.561,0.83-1.291,1.061-1.841,1.061c-0.92,0-1.521-0.6-1.84-1.01
	c-0.33-0.512-0.33-1.15-0.33-2.67V43.79h-3.54c-1.52,0-2.16,0-2.62-0.318c-0.97-0.641-1.01-1.471-1.01-1.791
	c0-0.97,0.6-1.52,0.96-1.8c0.51-0.319,1.15-0.319,2.67-0.319h3.54v-4.19c0-1.521,0-2.16,0.33-2.62c0.55-0.83,1.279-1.01,1.84-1.01
	c0.92,0,1.51,0.549,1.841,1.01c0.319,0.46,0.319,1.1,0.319,2.62v4.19H307.58z"/>
<path style="fill-rule:evenodd;clip-rule:evenodd;" d="M350.98,45.631c-1.381,0-2.03,0-2.58-0.319
	c-0.689-0.41-1.101-1.101-1.101-1.84c0-0.781,0.55-1.432,1.101-1.791c0.55-0.33,1.061-0.33,2.58-0.33h13.89
	c1.38,0,2.069,0,2.58,0.33c0.689,0.461,1.1,1.101,1.1,1.84c0,0.781-0.5,1.42-1.06,1.791c-0.551,0.319-1.051,0.319-2.62,0.319H350.98
	z M336.49,51.571c0.82-0.32,2.199-0.83,2.57-0.83c1.239,0,1.709,1.38,1.709,2.119c0,1.051-0.33,1.561-4.279,3.17v12.611
	c0,2.58-0.101,5.148-4.37,5.148c-0.88,0-3.271-0.09-3.96-0.459c-0.78-0.41-1.15-1.24-1.15-1.93c0-0.5,0.32-2.07,2.351-2.07
	c0.229,0,1.93,0.141,2.02,0.141c0.64,0,0.689-0.92,0.689-1.611V57.552c-1.56,0.51-2.709,0.689-3.18,0.689
	c-1.239,0-2.02-1.01-2.02-2.25c0-1.43,0.78-1.711,1.29-1.891c0.18-0.09,3.31-0.83,3.909-1.061v-8.699h-1.149
	c-1.891,0-2.53,0-3.04-0.551c-0.5-0.459-0.69-1.148-0.69-1.699c0-0.689,0.33-1.34,0.69-1.699c0.56-0.561,1.11-0.561,3.04-0.561
	h1.149v-4.51c0-1.881,0-2.391,0.642-3.031c0.419-0.419,0.97-0.648,1.568-0.648c0.971,0,1.61,0.6,1.891,1.06
	c0.32,0.46,0.32,1.11,0.32,2.62v4.51c2.39,0,2.85,0,3.31,0.279c0.69,0.371,1.061,1.24,1.061,1.98c0,0.641-0.28,1.561-1.061,1.98
	c-0.46,0.27-0.97,0.27-3.31,0.27V51.571z M353.189,54.101v13.67c0.271-0.049,0.871-0.189,1.511-0.369
	c1.569-0.551,1.71-0.6,2.119-0.6c0.78,0,2.07,0.6,2.07,1.93c0,1.199-0.689,1.84-1.47,2.17c-4.05,1.699-9.939,2.479-11,2.479
	c-1.97,0-2.439-1.328-2.439-2.119c0-0.689,0.369-1.789,1.799-2.07c0.461-0.09,2.581-0.41,2.99-0.5v-14.59h-2.619
	c-0.189,5.52-1.11,12.291-4.101,17.301c-0.78,1.34-1.79,1.379-2.069,1.379c-1.15,0-2.25-1.01-2.25-2.209
	c0-0.461,0.089-0.59,1.06-2.621c1.239-2.619,1.979-5.109,2.43-9.709c0.6-5.52,0.6-13.25,0.6-14.77c0-6.631,0-8.381,0.601-9.48
	c0.55-1.01,1.75-1.29,3.27-1.29h19.5c1.891,0,2.4,0,3.041,0.649c0.23,0.23,0.64,0.73,0.64,1.61c0,0.96-0.5,1.56-1.01,1.931
	c-0.5,0.319-1.149,0.319-2.671,0.319H347.8c-1.51,0-1.56,0-1.56,4.42c0,1.29,0.05,7.04,0,8.19h19.779c1.471,0,2.12,0,2.62,0.32
	c0.88,0.6,1.021,1.34,1.021,1.84c0,0.92-0.6,1.52-1.021,1.799c-0.5,0.32-1.149,0.32-2.62,0.32h-5.8c0.28,2.48,0.511,3.73,1.16,5.57
	c1.331-0.689,2.62-1.34,3.581-1.98c1.149-0.83,1.75-1.061,2.209-1.061c1.24,0,2.16,0.871,2.16,2.16c0,1.061-0.27,1.611-3.311,3.32
	c-2.159,1.191-2.39,1.33-2.8,1.51c2.07,3.59,3.681,4.791,5.65,6.221c0.561,0.41,0.92,1.01,0.92,1.789c0,0.922-0.69,2.352-2.07,2.352
	c-2.2,0-4.78-3.041-5.289-3.59c-1.97-2.352-5.841-7.131-6.761-16.291H353.189z"/>
<path style="fill-rule:evenodd;clip-rule:evenodd;" d="M412.41,74.161c0.409,0,1.79-0.6,1.79-2.07c0-0.6-0.271-1.66-1.521-2.07
	c-0.5-0.141-3.119-0.74-3.72-0.871c-1.2-0.328-6.72-2.67-8.05-2.67c-0.78,0-2.03,0.781-2.03,2.111c0,1.34,1.25,1.98,1.89,2.26
	C400.77,70.851,409.37,74.161,412.41,74.161 M388.21,66.341c-0.181,0.051-1.61,0.639-1.891,0.779c-5.38,2.211-6.25,2.58-7.949,2.951
	c-1.11,0.229-2.9,0.6-2.9,2.34c0,0.789,0.73,2.17,2.25,2.17c1.431,0,5.98-1.381,10.261-3.5c1.93-0.971,2.439-1.701,2.439-2.67
	C390.42,66.751,388.9,66.251,388.21,66.341 M392.54,39.741c-1.75,0-3.64,0-3.64,1.799c0,1.75,1.89,1.75,3.64,1.75h3.771
	c1.75,0,3.629,0,3.629-1.75c0-1.799-1.879-1.799-3.629-1.799H392.54z M387.93,61.601V37.86c0-0.369,0.28-0.969,0.92-0.969h11.23
	c0.46,0,0.87,0,0.87,0.689v24.02H387.93z M379.33,42.142l-0.09-2.721c-0.051-0.23-0.051-0.41,0.14-0.6
	c0.181-0.18,2.16-1.33,3.22-1.98c0.18-0.09,1.24-0.87,1.24-1.93c0-0.69-0.689-2.02-2.12-2.02c-1.01,0-5.239,2.25-5.89,2.939
	c-0.36,0.41-0.78,1.061-0.73,2.529l0.73,23.289c-1.511,0.131-2.02,1.33-2.02,2.07c0,0.271,0.05,1.102,1.009,1.791
	c0.511,0.32,1.15,0.32,2.671,0.32h34.6c1.51,0,2.16,0,2.66-0.32c0.37-0.27,1.02-0.869,1.02-1.791c0-0.6-0.279-1.979-2.39-2.119
	l0.73-24.709c0.05-1.102,0.05-1.521-0.091-1.842c-0.189-0.368-0.64-1.379-2.209-1.379h-2.621c-1.52,0-2.16,0-2.67,0.32
	c-0.6,0.409-1.01,1.059-1.01,1.889c0,1.012,0.69,1.561,1.15,1.841c0.09,0.04,1.7,0.14,2.57,0.18c0.51,0,0.739,0.32,0.739,0.97
	l-0.09,3.271h-1.24c-1.01,0-1.659,0-2.17,0.318c-0.5,0.371-1.01,0.961-1.01,1.932c0,2.25,2.12,2.25,3.18,2.25h1.101l-0.09,4.238
	h-1.15c-0.83,0-3.04,0-3.04,2.16c0,2.121,2.26,2.121,3.04,2.121h1.061l-0.19,6.439h-4.78v-26.09c0-1.34-1.2-2.811-3.13-2.811h-14.03
	c-1.75,0-2.85,1.981-2.85,2.861v26.039h-4.561l-0.229-6.17h0.87c0.97,0,3.09,0,3.09-2.16s-2.17-2.16-3.09-2.16h-1.01l-0.181-4.279
	h1.011c1.339,0,3.31,0,3.31-2.351c0-2.339-1.93-2.339-3.31-2.339H379.33z M389.68,55.161c0,2.109,1.431,2.709,2.811,2.709h4
	c1.06,0,2.81-0.369,2.81-2.709v-6.77c0-2.111-1.43-2.71-2.81-2.71h-4c-1.11,0-2.811,0.409-2.811,2.71V55.161z M395.34,49.54
	c0.46,0,0.46,0.19,0.46,0.562v3.079c0,0.41,0,0.73-0.5,0.73h-1.521c-0.369,0-0.6-0.131-0.6-0.551v-3.08c0-0.74,0.23-0.74,0.6-0.74
	H395.34z"/>
<path style="fill-rule:evenodd;clip-rule:evenodd;" d="M439.01,46.371c0.51-0.649,1.059-1.431,1.43-1.979
	c-0.18,0.369-0.229,0.549-0.229,0.969c0,0.551,0.229,1.471,0.41,2.301l-2.76,0.18L439.01,46.371z M441.54,51.201
	c0.14,0.409,0.42,1.06,1.521,1.06c0.969,0,1.659-0.97,1.659-1.93c0-0.88-0.46-3.78-0.97-5.34c-0.23-0.83-0.87-1.57-1.88-1.57
	c-0.65,0-0.97,0.33-1.2,0.65c2.16-3.41,2.85-4.6,2.85-5.25c0-1.19-0.689-1.93-1.649-1.93c-1.021,0-1.521,0.6-2.44,2.119
	c-0.319,0.59-0.88,1.381-1.15,1.79c-0.649-0.829-1.149-1.29-1.659-1.79c0.28-0.33,0.409-0.46,1.52-1.8
	c1.471-1.84,1.89-2.44,1.89-3.22c0-1.33-0.969-2.07-1.939-2.07c-1.01,0-1.42,0.51-2.34,1.84c-0.65,0.87-1.84,2.48-1.98,2.62
	c-0.42-0.271-0.869-0.5-1.43-0.5c-1.1,0-1.88,0.92-1.88,1.841c0,0.6,0.18,1.1,1.24,2.069c0.689,0.64,3.59,3.771,4.18,4.37
	c-0.59,0.83-2.062,2.619-3.26,4.09c-0.92,0.24-1.341,1.109-1.341,1.66c0,0.42,0.19,1.75,2.311,1.75c0.18,0,0.32-0.051,1.37-0.09
	L441.54,51.201z M449.18,47.472c-0.14-1.611-0.14-2.211-0.27-7.271c0.59,0.55,2.979,3.09,3.49,3.59
	c-1.561,2.03-2.25,2.851-3.04,3.681H449.18z M436.939,53.46c-0.689,0-2.39,0.131-3.31,1.15c-0.18-0.51-0.28-0.74-1.2-1.66
	c-1.79-1.93-2.39-2.85-3.861-5.43v-2.67c1.932,0,2.121,0,2.672-0.18c0.51-0.141,1.328-0.83,1.328-1.939
	c0-0.551-0.179-1.24-1.008-1.791c-0.511-0.319-0.73-0.319-2.992-0.319v-5.2c0-1.52,0-2.12-0.318-2.63
	c-0.28-0.36-0.88-1.011-1.8-1.011c-0.23,0-1.101,0-1.79,1.011c-0.32,0.51-0.32,1.11-0.32,2.63v5.2h-1.15c-1.52,0-2.16,0-2.67,0.319
	c-0.409,0.281-1.01,0.871-1.01,1.791c0,0.56,0.23,1.25,1.01,1.799c0.51,0.32,1.15,0.32,2.67,0.32h0.871
	c-0.601,2.391-1.791,7.131-3.681,10.77c-1.79,3.4-1.84,3.451-1.84,4c0,1.24,1.06,2.121,2.16,2.121c1.25,0,1.8-0.51,3.64-4.971
	v13.801c0,1.52,0,2.17,0.32,2.629c0.279,0.41,0.83,1.01,1.79,1.01c0.229,0,1.11,0,1.8-1.01c0.318-0.459,0.318-1.109,0.318-2.629
	v-15.92c1.932,2.299,2.121,2.49,3.132,2.49c0.64,0,1.01-0.23,1.239-0.42v3.908c0,0.512-0.039,0.83-0.27,3.871
	c-0.141,2.119-0.47,3.27-1.34,5.15c-0.5,1.25-0.69,1.57-0.69,2.119c0,1.471,1.341,2.07,2.21,2.07c1.42,0,1.98-1.1,2.25-1.75
	c1.66-3.541,2.03-6.529,2.261-8.189l0.55,0.369c1.15,0.83,1.29,0.971,2.619,2.07c0.69,0.6,1.15,0.641,1.521,0.641
	c0.87,0,2.07-0.641,2.07-1.98c0-0.92-0.46-1.471-1.56-2.43c-1.021-0.881-3.041-2.58-4.011-2.58c-0.5,0-0.83,0.139-1.05,0.27v-1.51
	c0-0.74,0.55-1.109,1.279-1.109h7.591c0.79,3.219,1.71,5.619,2.54,7.6c-3.23,2.16-5.48,3.26-6.91,3.77
	c-1.471,0.551-2.57,1.01-2.57,2.58c0,1.381,1.42,2.02,2.021,2.02c0.55,0,5.11-1.379,9.43-4.6c2.21,3.4,4.7,4.881,7.04,4.881
	c3.08,0,4.33-3.592,4.33-7.691c0-0.83,0-2.709-1.939-2.709c-1.75,0-2.11,1.789-2.16,2.799c0,0.23-0.09,2.211-1.011,2.211
	c-0.46,0-1.52-0.871-2.67-2.439c1.66-1.471,4-3.59,4-5.201c0-1.379-1.1-2.16-2.109-2.16c-0.74,0-1.24,0.281-1.841,0.92
	c-0.319,0.32-1.75,2.07-2.069,2.49c-0.33-0.83-0.83-2.17-1.431-4.469h6.9c1.47,0,2.12,0,2.62-0.32c0.69-0.41,1.06-1.201,1.06-1.75
	c0-0.371-0.229-0.961-0.64-1.42c-0.6-0.691-0.88-0.691-3.5-0.691c-0.229-0.559-0.74-1.619-1.19-2.579l2.291-0.14
	c0.1,0.41,0.279,1.15,1.479,1.15c1.7,0,1.7-1.24,1.7-1.791c0-1.43-0.601-4.24-0.78-5.109c-0.42-1.801-0.88-2.301-1.892-2.301
	c-1.328,0-1.75,1.33-1.75,1.84c0,0.641,0.321,2.07,0.371,2.351l-2.81,0.181c1.39-1.701,6.12-8.051,6.12-9.66
	c0-1.2-0.82-1.94-1.79-1.94c-0.74,0-1.2,0.37-1.79,1.25c-0.33,0.5-1.98,3.08-2.352,3.63l-0.408-0.51
	c-0.141-0.18-0.33-0.359-0.83-0.92c0.23-0.32,3.17-3.91,3.17-5.1c0-0.69-0.37-1.891-1.7-1.891c-0.28,0-0.97,0.051-1.47,0.6
	c-0.141,0.141-2.49,3.271-2.811,3.771c-0.319-0.181-0.64-0.37-1.189-0.37c-0.512,0-0.79,0.141-1.02,0.28
	c-0.041-2.351-0.091-2.62-0.141-3.04c-0.27-1.29-1.609-1.42-1.93-1.42c-2.301,0-2.301,2.39-2.301,3.17
	c0,11.27,0.461,14.859,1.061,18.549H436.939z M450.01,53.46c-0.09-0.51-0.14-0.83-0.37-2.169l2.811-0.181
	c0,0.041,0.09,0.271,0.96,2.35H450.01z"/>
<path style="fill-rule:evenodd;clip-rule:evenodd;" d="M475.83,55.161c1.66,2.439,2.39,2.57,3.13,2.57
	c1.559,0,2.21-1.471,2.21-2.301c0-0.689-0.32-1.15-0.97-1.93c-0.69-0.92-2.9-4-4.37-7.78v-0.87h0.739c1.511,0,2.161,0,2.671-0.32
	c0.55-0.369,1.01-0.969,1.01-1.93c0-0.88-0.42-1.38-0.65-1.619c-0.64-0.641-1.1-0.641-3.03-0.641h-0.739v-4.92
	c0-1.609,0-2.17-0.271-2.67c-0.42-0.689-1.199-1.01-1.89-1.01c-0.74,0-1.47,0.32-1.891,1.01c-0.27,0.5-0.27,1.01-0.27,2.67v4.92
	h-2.399c-1.511,0-2.16,0-2.66,0.32c-0.561,0.369-1.021,0.97-1.021,1.939c0,0.87,0.42,1.381,0.65,1.61c0.64,0.64,1.1,0.64,3.03,0.64
	h1.609c-1.05,4.141-2.29,8.561-4.78,12.791c-0.779,1.379-1.06,1.889-1.06,2.488c0,1.471,1.43,2.34,2.39,2.34
	c1.2,0,2.03-0.5,4.24-5.559v13.66c0,1.57,0,2.119,0.27,2.629c0.421,0.73,1.201,1.051,1.891,1.051c0.73,0,1.47-0.359,1.89-1.051
	c0.271-0.51,0.271-1.02,0.271-2.629V55.161z M496.67,45.591h-5.609v-1.8h5.609V45.591z M496.67,40.291h-5.609V38.36h5.609V40.291z
	 M491.56,56.72h-5.01V55.8c0-0.5,0.229-0.92,0.78-0.92h4.229V56.72z M496.12,54.88h4.55c0.33,0,0.74,0,0.74,0.691v1.148h-5.29V54.88
	z M491.56,61.55h-5.011v-1.559h5.011V61.55z M491.56,51.251h-6.069c-2.62,0-3.45,2.16-3.45,3.08v7.219c-1.38,0-3.36,0-3.36,1.98
	c0,1.939,1.98,1.939,3.36,1.939v5.15c0,1.891,0,2.391,0.65,3.041c0.359,0.359,0.92,0.639,1.609,0.639c0.96,0,1.561-0.549,1.931-1.01
	c0.319-0.51,0.319-1.148,0.319-2.67v-5.15h14.86v2.66c0,1.432-0.92,1.432-1.93,1.432c-0.69,0-1.381-0.051-2.07-0.141
	c-0.19,0-1.7-0.18-1.8-0.18c-1.051,0-1.931,0.92-1.931,2.02c0,0.74,0.41,1.66,1.471,2.029c0.79,0.23,2.76,0.5,4.739,0.5
	c1.379,0,3.87,0,5.25-1.969c0.41-0.602,0.73-1.711,0.73-2.631V65.47c0.74,0,2.62-0.049,2.62-1.939c0-1.93-1.88-1.98-2.62-1.98
	v-6.988c0-1.57-0.92-3.311-3.311-3.311h-6.439v-2.07h8.229c2.4,0,3.551,0,3.551-1.8c0-1.79-1.11-1.79-3.551-1.79h-3.17v-1.8h1.29
	c2.21,0,3.59,0,3.59-1.75s-1.38-1.75-3.59-1.75h-1.29V38.36h2.811c1.88,0,2.3,0,2.76-0.27c0.55-0.37,0.819-0.971,0.819-1.57
	s-0.27-1.199-0.819-1.56c-0.46-0.28-0.971-0.28-2.76-0.28h-2.811c0-1.199,0-1.84-0.319-2.3c-0.37-0.55-0.971-1.06-1.931-1.06
	c-0.79,0-1.479,0.369-1.939,1.06c-0.32,0.46-0.32,1.06-0.32,2.3h-5.61c0-1.24,0-1.84-0.319-2.3c-0.55-0.78-1.2-1.011-1.84-1.011
	c-1.15,0-1.841,0.871-1.98,1.33c-0.189,0.511-0.189,0.881-0.189,1.98h-2.801c-1.89,0-2.3,0-2.72,0.28
	c-0.55,0.36-0.82,0.96-0.82,1.56s0.23,1.2,0.82,1.57c0.42,0.27,0.92,0.27,2.72,0.27h2.801v1.931h-1.971c-2.16,0-3.55,0-3.55,1.75
	s1.39,1.75,3.55,1.75h1.971v1.8h-3.351c-2.399,0-3.59,0-3.59,1.79c0,1.8,1.1,1.8,3.59,1.8h8.18V51.251z M496.12,59.991h5.29v1.559
	h-5.29V59.991z"/>
<path style="fill-rule:evenodd;clip-rule:evenodd;fill:#004E87;" d="M93.74,76.71c23.54-16.25,34.91-40.6,25.39-54.359
	c-9.5-13.779-36.3-11.75-59.83,4.51C35.77,43.131,24.4,67.47,33.92,81.241C43.43,95.011,70.21,92.981,93.74,76.71 M28.83,84.761
	c-10.02-14.49,3.22-41,29.56-59.21c26.35-18.21,55.83-21.22,65.84-6.729c10,14.479-3.23,41-29.59,59.209
	C68.31,96.231,38.83,99.251,28.83,84.761"/>
<path style="fill:#CD1B2F;" d="M84.9,20.591c4.04,0,7.31-3.279,7.31-7.311c0-4.049-3.27-7.319-7.31-7.319
	c-4.03,0-7.3,3.271-7.3,7.319C77.6,17.312,80.87,20.591,84.9,20.591"/>
<path style="fill:#004E87;" d="M53.17,33.071v21.75c0,3.24-2.61,5.879-5.88,5.879h-4.28v9.99H48c8.37,0,15.16-6.789,15.16-15.16
	V33.071H53.17z"/>
<path style="fill:#004E87;" d="M107.19,33.071h-8.91h-9.99H74.38c-5.57,0-10.52,4.52-10.52,10.1c0,4.43,2.15,7.109,5.36,9.6
	l7.13,5.35c2.14,2.021,0.71,3.92-2.31,3.92H63.86v8.65h13.25c5.59,0,10.28-3.629,10.28-10.279c0-5.301-3.04-7.51-4.72-9.061
	c-1.63-1.529-6.45-4.619-8.56-6.42c-1.51-1.43-0.25-2.939,1.7-2.939h12.48V70.69h9.99V41.991h8.91V33.071z"/>
</svg>
