<?xml version="1.0" encoding="iso-8859-1"?>
<!-- Generator: Adobe Illustrator 15.0.2, SVG Export Plug-In . SVG Version: 6.00 Build 0)  -->
<!DOCTYPE svg PUBLIC "-//W3C//DTD SVG 1.1//EN" "http://www.w3.org/Graphics/SVG/1.1/DTD/svg11.dtd">
<svg version="1.1" id="&#x30EC;&#x30A4;&#x30E4;&#x30FC;_1"
	 xmlns="http://www.w3.org/2000/svg" xmlns:xlink="http://www.w3.org/1999/xlink" x="0px" y="0px" width="498px" height="84px"
	 viewBox="0 0 498 84" style="enable-background:new 0 0 498 84;" xml:space="preserve">
<path d="M96.74,38.246v12.041c0,2-0.439,3.449-1.301,4.34c-0.869,0.892-2.25,1.33-4.14,1.33c-1.101,0-1.94-0.09-2.55-0.271v-2.528
	c0.96,0.068,1.63,0.1,2.02,0.1c1.051,0,1.771-0.188,2.15-0.58c0.39-0.399,0.58-1.188,0.58-2.391V38.246H96.74L96.74,38.246z"/>
<path d="M106.68,49.117c-3.78,0-5.66,0.898-5.66,2.698c0,0.541,0.19,1,0.57,1.37c0.38,0.38,0.95,0.57,1.72,0.57
	c1.11,0,1.95-0.352,2.511-1.051c0.569-0.699,0.859-1.5,0.859-2.399V49.117z M109.899,55.688h-2.78
	c-0.238-0.779-0.39-1.65-0.438-2.602c-0.78,1.91-2.24,2.871-4.38,2.871c-1.29,0-2.32-0.381-3.102-1.131
	c-0.789-0.75-1.18-1.699-1.18-2.841c0-2.971,2.61-4.45,7.82-4.45l0.84,0.012v-0.971c0-1.341-0.92-2-2.74-2
	c-1.779,0-2.779,0.659-3.02,2l-2.49-0.369c0.141-1.07,0.689-1.961,1.67-2.65c0.97-0.689,2.38-1.039,4.22-1.039
	c1,0,1.812,0.078,2.45,0.25c0.63,0.158,1.16,0.447,1.6,0.84c0.432,0.398,0.73,0.83,0.9,1.29c0.16,0.47,0.25,1.25,0.25,2.358v5.83
	C109.52,53.926,109.649,54.797,109.899,55.688"/>
<path d="M116.109,50.396c0,0.939,0.28,1.721,0.84,2.33c0.562,0.619,1.182,0.932,1.86,0.932c0.931,0,1.61-0.41,2.04-1.221
	s0.65-1.852,0.65-3.102c0-1.31-0.221-2.379-0.65-3.199c-0.439-0.819-1.09-1.229-1.95-1.229c-0.778,0-1.438,0.329-1.979,1.01
	c-0.54,0.67-0.812,1.549-0.812,2.642V50.396z M116.109,60.047h-2.97V42.785h2.79v2.25c0.9-1.681,2.22-2.521,3.96-2.521
	c1.431,0,2.57,0.62,3.431,1.86c0.851,1.25,1.279,2.838,1.279,4.771c0,1.829-0.41,3.42-1.229,4.778
	c-0.812,1.353-2.03,2.031-3.642,2.031c-1.659,0-2.87-0.69-3.62-2.07V60.047L116.109,60.047z"/>
<path d="M134.08,49.117c-3.771,0-5.66,0.898-5.66,2.698c0,0.541,0.188,1,0.568,1.37c0.381,0.38,0.961,0.57,1.722,0.57
	c1.108,0,1.948-0.352,2.52-1.051c0.57-0.699,0.852-1.5,0.852-2.399L134.08,49.117L134.08,49.117z M137.31,55.688h-2.78
	c-0.25-0.779-0.398-1.65-0.448-2.602c-0.78,1.91-2.24,2.871-4.382,2.871c-1.288,0-2.318-0.381-3.1-1.131s-1.17-1.699-1.17-2.841
	c0-2.971,2.6-4.45,7.82-4.45l0.83,0.012v-0.971c0-1.341-0.91-2-2.74-2c-1.771,0-2.78,0.659-3.021,2l-2.479-0.369
	c0.13-1.07,0.689-1.961,1.66-2.65c0.97-0.689,2.38-1.039,4.22-1.039c1,0,1.819,0.078,2.45,0.25c0.63,0.158,1.16,0.447,1.6,0.84
	c0.43,0.398,0.74,0.83,0.9,1.29c0.17,0.47,0.25,1.25,0.25,2.358v5.83C136.92,53.926,137.05,54.797,137.31,55.688"/>
<path d="M150.05,55.688h-2.92v-8.061c0-0.852-0.19-1.49-0.58-1.92c-0.4-0.433-0.87-0.65-1.42-0.65c-0.761,0-1.431,0.33-2,1
	c-0.57,0.658-0.86,1.658-0.86,3v6.63h-2.92V42.787h2.67v2.989c0.93-2.171,2.23-3.261,3.91-3.261c1.141,0,2.11,0.359,2.91,1.07
	c0.81,0.72,1.21,1.97,1.21,3.77V55.688z"/>
<path d="M156.75,51.488l3.06-0.65c0.37,1.729,1.78,2.59,4.23,2.59c1.108,0,1.97-0.219,2.568-0.659c0.61-0.449,0.91-1,0.91-1.649
	c0-0.479-0.14-0.92-0.41-1.318c-0.278-0.41-0.858-0.73-1.76-0.961l-3.34-0.871c-1.14-0.288-1.98-0.629-2.53-1.008
	c-0.55-0.381-0.979-0.91-1.31-1.603c-0.33-0.69-0.5-1.431-0.5-2.22c0-1.551,0.58-2.801,1.75-3.74c1.159-0.949,2.64-1.42,4.448-1.42
	c1.5,0,2.842,0.33,4.021,0.988c1.189,0.65,1.939,1.582,2.26,2.781l-2.988,0.738c-0.462-1.318-1.541-1.979-3.23-1.979
	c-0.98,0-1.73,0.207-2.24,0.619c-0.52,0.408-0.779,0.92-0.779,1.56c0,0.989,0.811,1.69,2.431,2.091l2.97,0.739
	c1.8,0.448,3.01,1.12,3.63,2c0.61,0.88,0.92,1.86,0.92,2.92c0,1.71-0.648,3.062-1.938,4.04c-1.29,0.988-2.971,1.48-5.03,1.48
	c-1.729,0-3.24-0.361-4.55-1.092C158.04,54.146,157.18,53.017,156.75,51.488"/>
<path d="M180.18,50.947l2.5,0.262c-0.32,1.619-0.95,2.81-1.88,3.59c-0.931,0.771-2.05,1.16-3.36,1.16c-1.79,0-3.16-0.65-4.119-1.951
	c-0.961-1.299-1.439-2.891-1.439-4.77c0-1.939,0.53-3.551,1.58-4.82c1.05-1.271,2.45-1.899,4.188-1.899c2.82,0,4.5,1.479,5.03,4.45
	l-2.5,0.34c-0.229-1.6-1.01-2.398-2.37-2.398c-0.989,0-1.71,0.43-2.159,1.301c-0.45,0.858-0.671,1.908-0.671,3.129
	c0,1.312,0.23,2.312,0.7,3.021c0.46,0.699,1.109,1.06,1.95,1.06C178.91,53.416,179.76,52.596,180.18,50.947"/>
<path d="M186.34,55.688h-2.92v-12.9h2.92V55.688z M186.34,41.277h-2.92v-3.029h2.92V41.277z"/>
<path d="M197.43,47.715c-0.01-0.93-0.29-1.688-0.84-2.27c-0.55-0.591-1.23-0.891-2.04-0.891c-0.8,0-1.47,0.279-2.01,0.83
	c-0.53,0.55-0.852,1.32-0.94,2.328L197.43,47.715L197.43,47.715z M197.609,51.578l2.642,0.358c-0.341,1.159-1.011,2.13-2,2.88
	c-0.99,0.762-2.23,1.141-3.722,1.141c-1.789,0-3.238-0.601-4.328-1.801c-1.092-1.199-1.642-2.828-1.642-4.88
	c0-1.948,0.55-3.569,1.65-4.84c1.11-1.28,2.6-1.921,4.479-1.921c1.852,0,3.271,0.63,4.28,1.891c1.01,1.26,1.51,2.881,1.51,4.859
	l-0.01,0.33h-8.87c0,0.869,0.08,1.58,0.25,2.109c0.16,0.521,0.49,0.979,0.99,1.379c0.49,0.392,1.11,0.58,1.85,0.58
	C196.14,53.666,197.109,52.965,197.609,51.578"/>
<path d="M213.199,55.688h-2.92v-8.061c0-0.852-0.189-1.49-0.591-1.92c-0.39-0.433-0.858-0.65-1.42-0.65c-0.76,0-1.42,0.33-1.989,1
	c-0.569,0.658-0.859,1.658-0.859,3v6.63h-2.92V42.787h2.66v2.989c0.93-2.171,2.238-3.261,3.92-3.261c1.13,0,2.108,0.359,2.91,1.07
	c0.81,0.72,1.209,1.97,1.209,3.77V55.688z"/>
<path d="M223.069,50.947l2.512,0.262c-0.33,1.619-0.95,2.81-1.882,3.59c-0.93,0.771-2.06,1.16-3.368,1.16
	c-1.78,0-3.15-0.65-4.11-1.951c-0.96-1.299-1.439-2.891-1.439-4.77c0-1.939,0.521-3.551,1.569-4.82c1.05-1.271,2.45-1.899,4.2-1.899
	c2.81,0,4.49,1.479,5.03,4.45l-2.511,0.34c-0.221-1.6-1.011-2.398-2.371-2.398c-0.988,0-1.709,0.43-2.158,1.301
	c-0.44,0.858-0.671,1.908-0.671,3.129c0,1.312,0.239,2.312,0.7,3.021c0.47,0.699,1.119,1.06,1.949,1.06
	C221.8,53.416,222.649,52.596,223.069,50.947"/>
<path d="M235.56,47.715c-0.01-0.93-0.29-1.688-0.84-2.27c-0.55-0.591-1.229-0.891-2.04-0.891c-0.8,0-1.47,0.279-2.01,0.83
	c-0.54,0.55-0.852,1.32-0.95,2.328L235.56,47.715L235.56,47.715z M235.74,51.578l2.641,0.358c-0.352,1.159-1.01,2.13-2,2.88
	c-0.99,0.762-2.23,1.141-3.73,1.141c-1.79,0-3.229-0.601-4.318-1.801c-1.09-1.199-1.642-2.828-1.642-4.88
	c0-1.948,0.552-3.569,1.65-4.84c1.1-1.28,2.6-1.921,4.479-1.921c1.841,0,3.271,0.63,4.279,1.891c1,1.26,1.51,2.881,1.51,4.859
	l-0.02,0.33h-8.87c0,0.869,0.09,1.58,0.25,2.109c0.17,0.521,0.5,0.979,1,1.379c0.49,0.392,1.11,0.58,1.85,0.58
	C234.26,53.666,235.24,52.965,235.74,51.578"/>
<path d="M253.229,49.117c-3.769,0-5.659,0.898-5.659,2.698c0,0.541,0.19,1,0.569,1.37c0.38,0.38,0.951,0.57,1.721,0.57
	c1.11,0,1.949-0.352,2.521-1.051c0.559-0.699,0.849-1.5,0.849-2.399L253.229,49.117L253.229,49.117z M256.449,55.688h-2.771
	c-0.25-0.779-0.399-1.65-0.45-2.602c-0.778,1.91-2.239,2.871-4.38,2.871c-1.29,0-2.318-0.381-3.1-1.131
	c-0.779-0.75-1.18-1.699-1.18-2.841c0-2.971,2.608-4.45,7.83-4.45l0.828,0.012v-0.971c0-1.341-0.92-2-2.74-2
	c-1.777,0-2.777,0.659-3.019,2l-2.491-0.369c0.142-1.07,0.7-1.961,1.671-2.65s2.38-1.039,4.221-1.039c1,0,1.818,0.078,2.448,0.25
	c0.631,0.158,1.16,0.447,1.603,0.84c0.43,0.398,0.729,0.83,0.897,1.29c0.17,0.47,0.25,1.25,0.25,2.358v5.83
	C256.07,53.926,256.199,54.797,256.449,55.688"/>
<path d="M270.39,55.688h-2.92v-8.061c0-0.852-0.188-1.49-0.59-1.92c-0.392-0.433-0.86-0.65-1.42-0.65c-0.761,0-1.421,0.33-1.99,1
	c-0.569,0.658-0.86,1.658-0.86,3v6.63h-2.92V42.787h2.66v2.989c0.932-2.171,2.24-3.261,3.92-3.261c1.142,0,2.11,0.359,2.91,1.07
	c0.812,0.72,1.21,1.97,1.21,3.77V55.688z"/>
<path d="M280.499,48.078c0-1.052-0.25-1.871-0.75-2.451c-0.489-0.58-1.141-0.869-1.932-0.869c-0.868,0-1.538,0.369-2.028,1.119
	c-0.479,0.75-0.729,1.869-0.729,3.359c0,2.881,0.91,4.318,2.722,4.318c0.709,0,1.351-0.311,1.898-0.93
	c0.55-0.619,0.818-1.41,0.818-2.369L280.499,48.078L280.499,48.078z M283.42,55.688h-2.721v-2.602
	c-0.761,1.91-2.028,2.871-3.818,2.871c-1.591,0-2.8-0.66-3.65-1.98c-0.84-1.318-1.26-2.959-1.26-4.92c0-1.818,0.438-3.41,1.312-4.76
	c0.879-1.359,2.129-2.041,3.75-2.041c1.67,0,2.817,0.761,3.469,2.279v-6.289h2.921v17.44L283.42,55.688L283.42,55.688z"/>
<polygon points="296.938,55.688 293.56,55.688 293.56,40.947 288.92,40.947 288.92,38.246 301.59,38.246 301.59,40.947 
	296.938,40.947 "/>
<path d="M309.429,47.715c-0.01-0.93-0.289-1.688-0.84-2.27c-0.551-0.591-1.23-0.891-2.041-0.891c-0.801,0-1.469,0.279-2.01,0.83
	c-0.541,0.55-0.851,1.32-0.949,2.328L309.429,47.715L309.429,47.715z M309.608,51.578l2.642,0.358c-0.34,1.159-1.01,2.13-2,2.88
	c-0.988,0.762-2.229,1.141-3.719,1.141c-1.802,0-3.24-0.601-4.33-1.801c-1.093-1.199-1.642-2.828-1.642-4.88
	c0-1.948,0.549-3.569,1.65-4.84c1.1-1.28,2.6-1.921,4.479-1.921c1.851,0,3.271,0.63,4.279,1.891c1,1.26,1.51,2.881,1.51,4.859
	l-0.02,0.33h-8.871c0,0.869,0.092,1.58,0.25,2.109c0.172,0.521,0.5,0.979,1,1.379c0.492,0.392,1.111,0.58,1.853,0.58
	C308.131,53.666,309.108,52.965,309.608,51.578"/>
<path d="M321.961,50.947l2.51,0.262c-0.32,1.619-0.951,2.81-1.881,3.59c-0.932,0.771-2.051,1.16-3.369,1.16
	c-1.781,0-3.15-0.65-4.111-1.951c-0.959-1.299-1.438-2.891-1.438-4.77c0-1.939,0.518-3.551,1.568-4.82
	c1.051-1.271,2.448-1.899,4.198-1.899c2.82,0,4.49,1.479,5.031,4.45l-2.51,0.34c-0.224-1.6-1.013-2.398-2.371-2.398
	c-0.99,0-1.709,0.43-2.15,1.301c-0.448,0.858-0.67,1.908-0.67,3.129c0,1.312,0.23,2.312,0.691,3.021
	c0.469,0.699,1.119,1.06,1.946,1.06C320.688,53.416,321.539,52.596,321.961,50.947"/>
<path d="M337.108,55.688h-2.907v-8.439c0-0.91-0.201-1.561-0.593-1.931c-0.379-0.37-0.84-0.551-1.358-0.551
	c-0.828,0-1.521,0.329-2.09,0.979c-0.562,0.66-0.84,1.739-0.84,3.25v6.688h-2.921V38.246h2.921v6.801
	c0.721-1.859,2-2.791,3.811-2.791c2.66,0,3.979,1.521,3.979,4.562L337.108,55.688L337.108,55.688z"/>
<path d="M350.22,55.688h-2.92v-8.061c0-0.852-0.191-1.49-0.59-1.92c-0.394-0.433-0.861-0.65-1.422-0.65c-0.761,0-1.421,0.33-1.988,1
	c-0.58,0.658-0.861,1.658-0.861,3v6.63h-2.92V42.787h2.66v2.989c0.93-2.171,2.24-3.261,3.92-3.261c1.131,0,2.103,0.359,2.91,1.07
	c0.812,0.72,1.211,1.97,1.211,3.77V55.688L350.22,55.688z"/>
<path d="M357.778,53.557c1.972,0,2.951-1.461,2.951-4.381c0-1.318-0.239-2.369-0.711-3.129c-0.459-0.762-1.188-1.141-2.16-1.141
	c-1.01,0-1.75,0.391-2.237,1.18c-0.48,0.791-0.73,1.83-0.73,3.141c0,1.4,0.262,2.48,0.781,3.221
	C356.179,53.186,356.89,53.557,357.778,53.557 M357.679,55.957c-1.91,0-3.369-0.689-4.379-2.062c-1-1.369-1.512-2.938-1.512-4.711
	c0-1.908,0.561-3.5,1.672-4.771c1.119-1.271,2.59-1.898,4.407-1.898c1.74,0,3.16,0.619,4.271,1.852
	c1.119,1.238,1.67,2.84,1.67,4.817c0,2.03-0.58,3.671-1.729,4.911C360.92,55.336,359.461,55.957,357.679,55.957"/>
<rect x="365.72" y="38.246" width="2.92" height="17.439"/>
<path d="M376.849,53.557c1.959,0,2.938-1.461,2.938-4.381c0-1.318-0.229-2.369-0.698-3.129c-0.472-0.762-1.188-1.141-2.16-1.141
	c-1.01,0-1.76,0.391-2.24,1.18c-0.487,0.791-0.729,1.83-0.729,3.141c0,1.4,0.25,2.48,0.77,3.221
	C375.252,53.188,375.949,53.557,376.849,53.557 M376.75,55.957c-1.92,0-3.369-0.689-4.381-2.062c-1.01-1.369-1.51-2.938-1.51-4.711
	c0-1.908,0.549-3.5,1.67-4.771c1.108-1.271,2.58-1.898,4.41-1.898c1.729,0,3.149,0.619,4.271,1.852
	c1.106,1.238,1.67,2.84,1.67,4.817c0,2.03-0.58,3.671-1.74,4.911C379.99,55.336,378.521,55.957,376.75,55.957"/>
<path d="M386.75,54.988c-0.41,0.379-0.619,0.75-0.619,1.107c0,0.591,0.35,1.111,1.049,1.551c0.701,0.449,1.811,0.671,3.34,0.671
	c2.24,0,3.361-0.569,3.361-1.722c0-0.43-0.191-0.75-0.592-0.969c-0.392-0.211-0.84-0.32-1.34-0.32h-3.101
	C388.26,55.307,387.57,55.197,386.75,54.988 M389.949,48.627c1.59,0,2.391-0.75,2.391-2.24c0-0.569-0.199-1.051-0.602-1.439
	c-0.398-0.398-0.979-0.59-1.729-0.59c-0.771,0-1.369,0.199-1.789,0.607c-0.42,0.412-0.631,0.922-0.631,1.543
	c0,0.629,0.211,1.14,0.621,1.527C388.631,48.426,389.211,48.627,389.949,48.627 M396.58,40.317v2.239h-0.892
	c-0.391,0-0.739,0.039-1.03,0.141c-0.299,0.09-0.578,0.391-0.869,0.898c1.029,0.842,1.541,1.771,1.541,2.791
	c0,1.141-0.479,2.09-1.439,2.84s-2.23,1.119-3.811,1.119c-0.683,0-1.479-0.107-2.392-0.328c-0.6,0.27-0.899,0.689-0.899,1.26
	c0,0.318,0.149,0.609,0.438,0.87c0.291,0.271,0.729,0.399,1.32,0.399h3.84c1.312,0,2.34,0.34,3.09,1.01
	c0.74,0.681,1.121,1.521,1.121,2.529c0,1.221-0.57,2.229-1.701,3.029c-1.129,0.801-2.799,1.2-5.021,1.2
	c-4.17,0-6.26-1.17-6.26-3.489c0-1.15,0.629-2.021,1.879-2.619c-0.799-0.682-1.199-1.392-1.199-2.131
	c0-1.131,0.681-2.021,2.062-2.689c-1.201-0.721-1.791-1.721-1.791-2.989c0-1.069,0.438-1.989,1.312-2.739
	c0.881-0.761,2.223-1.141,4.012-1.141c0.818,0,1.648,0.09,2.5,0.27c0.391-1.647,1.43-2.47,3.107-2.47H396.58L396.58,40.317z"/>
<path d="M408.74,42.787l-5.029,14.688c-0.301,0.899-0.721,1.603-1.26,2.103c-0.529,0.5-1.279,0.75-2.263,0.75
	c-0.379,0-0.938-0.031-1.67-0.092v-2.311l1.392,0.021c0.621,0,1.069-0.102,1.371-0.302c0.288-0.198,0.52-0.55,0.688-1.062
	c0.172-0.508,0.262-0.811,0.262-0.898c0-0.051-0.09-0.311-0.271-0.79l-4.438-12.108h3.062l3.131,8.51l2.699-8.51H408.74
	L408.74,42.787z"/>
<path d="M424.039,49.017l-2.541-7.779l-2.549,7.779H424.039z M429.65,55.688h-3.369l-1.392-4.15h-6.719l-1.371,4.15h-2.69
	l5.801-17.439h3.881L429.65,55.688z"/>
<path d="M433.22,54.988c-0.42,0.379-0.631,0.75-0.631,1.107c0,0.591,0.35,1.111,1.051,1.551c0.699,0.449,1.82,0.671,3.34,0.671
	c2.25,0,3.369-0.569,3.369-1.722c0-0.43-0.198-0.75-0.59-0.969c-0.392-0.211-0.84-0.32-1.34-0.32h-3.103
	C434.729,55.307,434.031,55.197,433.22,54.988 M436.42,48.627c1.59,0,2.381-0.75,2.381-2.24c0-0.569-0.201-1.051-0.59-1.439
	c-0.4-0.398-0.98-0.59-1.74-0.59s-1.361,0.199-1.781,0.607c-0.42,0.412-0.639,0.922-0.639,1.543c0,0.629,0.209,1.14,0.629,1.527
	C435.099,48.426,435.679,48.627,436.42,48.627 M443.051,40.317v2.239h-0.893c-0.398,0-0.738,0.039-1.027,0.141
	c-0.301,0.09-0.592,0.391-0.871,0.898c1.029,0.842,1.541,1.771,1.541,2.791c0,1.141-0.48,2.09-1.441,2.84
	c-0.959,0.75-2.229,1.119-3.809,1.119c-0.682,0-1.48-0.107-2.393-0.328c-0.6,0.27-0.898,0.689-0.898,1.26
	c0,0.318,0.148,0.609,0.439,0.87c0.289,0.271,0.729,0.399,1.311,0.399h3.84c1.32,0,2.353,0.34,3.09,1.01
	c0.75,0.681,1.121,1.521,1.121,2.529c0,1.221-0.562,2.229-1.688,3.029c-1.131,0.801-2.812,1.2-5.021,1.2
	c-4.181,0-6.261-1.17-6.261-3.489c0-1.15,0.619-2.021,1.881-2.619c-0.801-0.682-1.211-1.392-1.211-2.131
	c0-1.131,0.688-2.021,2.07-2.689c-1.199-0.721-1.802-1.721-1.802-2.989c0-1.069,0.439-1.989,1.32-2.739
	c0.879-0.761,2.219-1.141,4.01-1.141c0.82,0,1.65,0.09,2.49,0.27c0.398-1.647,1.43-2.47,3.109-2.47H443.051L443.051,40.317z"/>
<path d="M452.408,47.715c-0.011-0.93-0.289-1.688-0.84-2.27c-0.55-0.591-1.229-0.891-2.039-0.891c-0.802,0-1.472,0.279-2.011,0.83
	c-0.541,0.55-0.85,1.32-0.95,2.328L452.408,47.715L452.408,47.715z M452.59,51.578l2.631,0.358c-0.34,1.159-1,2.13-1.99,2.88
	c-0.99,0.762-2.229,1.141-3.729,1.141c-1.789,0-3.229-0.601-4.318-1.801c-1.1-1.199-1.641-2.828-1.641-4.88
	c0-1.948,0.551-3.569,1.647-4.84c1.103-1.28,2.592-1.921,4.48-1.921c1.84,0,3.27,0.63,4.27,1.891
	c1.012,1.26,1.512,2.881,1.512,4.859l-0.012,0.33h-8.871c0,0.869,0.082,1.58,0.25,2.109c0.172,0.521,0.5,0.979,0.992,1.379
	c0.5,0.392,1.119,0.58,1.859,0.58C451.109,53.666,452.08,52.965,452.59,51.578"/>
<path d="M468.179,55.688h-2.92v-8.061c0-0.852-0.199-1.49-0.59-1.92c-0.392-0.433-0.869-0.65-1.423-0.65c-0.76,0-1.43,0.33-2,1
	c-0.567,0.658-0.856,1.658-0.856,3v6.63h-2.91V42.787h2.66v2.989c0.931-2.171,2.229-3.261,3.91-3.261c1.139,0,2.106,0.359,2.92,1.07
	c0.799,0.72,1.209,1.97,1.209,3.77V55.688z"/>
<path d="M478.039,50.947l2.512,0.262c-0.322,1.619-0.951,2.81-1.881,3.59c-0.932,0.771-2.051,1.16-3.359,1.16
	c-1.791,0-3.16-0.65-4.121-1.951c-0.961-1.299-1.438-2.891-1.438-4.77c0-1.939,0.53-3.551,1.569-4.82
	c1.051-1.271,2.449-1.899,4.199-1.899c2.82,0,4.49,1.479,5.031,4.45l-2.512,0.34c-0.221-1.6-1.01-2.398-2.359-2.398
	c-0.99,0-1.709,0.43-2.16,1.301c-0.449,0.858-0.67,1.908-0.67,3.129c0,1.312,0.23,2.312,0.701,3.021
	c0.459,0.699,1.107,1.06,1.947,1.06C476.781,53.416,477.631,52.596,478.039,50.947"/>
<path d="M490.961,42.787l-5.031,14.688c-0.311,0.899-0.729,1.603-1.26,2.103c-0.539,0.5-1.289,0.75-2.262,0.75
	c-0.39,0-0.947-0.031-1.681-0.092v-2.311l1.392,0.021c0.619,0,1.067-0.102,1.369-0.302c0.291-0.198,0.521-0.55,0.698-1.062
	c0.17-0.508,0.25-0.811,0.25-0.898c0-0.051-0.088-0.311-0.271-0.79l-4.438-12.108h3.062l3.141,8.51l2.701-8.51H490.961
	L490.961,42.787z"/>
<path style="fill:#004E87;" d="M62.229,61.146c18.8-12.76,27.88-31.85,20.28-42.648c-7.59-10.811-28.99-9.211-47.78,3.539
	c-18.79,12.771-27.87,31.859-20.28,42.66C22.05,75.498,43.439,73.906,62.229,61.146 M10.39,67.457
	c-8-11.371,2.57-32.16,23.61-46.449C55.04,6.729,78.59,4.367,86.58,15.729C94.568,27.086,84,47.887,62.949,62.178
	C41.92,76.457,18.38,78.828,10.39,67.457"/>
<path style="fill:#CD1B2F;" d="M55.17,17.117c3.229,0,5.84-2.57,5.84-5.73c0-3.18-2.61-5.738-5.84-5.738
	c-3.221,0-5.83,2.561-5.83,5.738C49.34,14.547,51.949,17.117,55.17,17.117"/>
<path style="fill:#004E87;" d="M29.83,26.906v17.061c0,2.551-2.09,4.619-4.7,4.619h-3.41v7.83h3.979
	c6.689,0,12.109-5.318,12.109-11.89v-17.62H29.83z"/>
<path style="fill:#004E87;" d="M72.97,26.906h-7.11h-7.979h-11.11c-4.448,0-8.398,3.551-8.398,7.93c0,3.472,1.71,5.57,4.278,7.521
	l5.69,4.199c1.71,1.58,0.57,3.08-1.84,3.08h-8.13v6.779h10.578c4.472,0,8.211-2.851,8.211-8.061c0-4.16-2.431-5.898-3.771-7.109
	c-1.3-1.199-5.149-3.619-6.83-5.039c-1.21-1.121-0.21-2.301,1.351-2.301h9.971v22.51h7.979v-22.51h7.11V26.906z"/>
<line style="fill:none;" x1="1359" y1="-315" x2="1359" y2="477"/>
<line style="fill:none;" x1="1359" y1="-315" x2="1359" y2="477"/>
</svg>
